<svg width="96" height="138" viewBox="0 0 96 138" fill="none" xmlns="http://www.w3.org/2000/svg">
<rect x="0.5" y="0.5" width="95" height="137" stroke="white"/>
<path d="M8.98864 102V78.7273H10.4091V100.682H21.7727V102H8.98864ZM26.9886 102V78.7273H39.9432V80.0455H28.4091V89.6932H39.25V91.0114H28.4091V100.682H40.2159V102H26.9886ZM47.2528 78.7273V102H45.8324V78.7273H47.2528ZM66.5341 84.5455C66.4129 83.0985 65.822 81.928 64.7614 81.0341C63.7083 80.1402 62.3447 79.6932 60.6705 79.6932C59.5417 79.6932 58.5379 79.9015 57.6591 80.3182C56.7803 80.7348 56.0909 81.303 55.5909 82.0227C55.0909 82.7424 54.8409 83.5682 54.8409 84.5C54.8409 85.0985 54.9545 85.6402 55.1818 86.125C55.4167 86.6023 55.7462 87.0303 56.1705 87.4091C56.5947 87.7803 57.0985 88.1061 57.6818 88.3864C58.2652 88.6667 58.9091 88.9129 59.6136 89.125L62.1591 89.875C63.0303 90.1402 63.8333 90.447 64.5682 90.7955C65.3106 91.1439 65.9545 91.5606 66.5 92.0455C67.053 92.5227 67.4811 93.0833 67.7841 93.7273C68.0947 94.3712 68.25 95.1136 68.25 95.9545C68.25 97.1818 67.9318 98.2803 67.2955 99.25C66.6667 100.22 65.7689 100.985 64.6023 101.545C63.4432 102.098 62.0758 102.375 60.5 102.375C59 102.375 57.6932 102.121 56.5795 101.614C55.4735 101.106 54.5985 100.402 53.9545 99.5C53.3106 98.5909 52.947 97.5455 52.8636 96.3636H54.3182C54.3939 97.3258 54.7008 98.1591 55.2386 98.8636C55.7841 99.5606 56.5076 100.098 57.4091 100.477C58.3106 100.856 59.3409 101.045 60.5 101.045C61.75 101.045 62.8523 100.833 63.8068 100.409C64.7614 99.9773 65.5076 99.3788 66.0455 98.6136C66.5833 97.8485 66.8523 96.9583 66.8523 95.9432C66.8523 95.125 66.6591 94.4242 66.2727 93.8409C65.8864 93.2576 65.3144 92.7538 64.5568 92.3295C63.8068 91.9053 62.875 91.5265 61.7614 91.1932L59.0455 90.375C57.2273 89.822 55.8371 89.0682 54.875 88.1136C53.9205 87.1591 53.4432 85.9697 53.4432 84.5455C53.4432 83.3485 53.7614 82.2879 54.3977 81.3636C55.0341 80.4318 55.8977 79.7008 56.9886 79.1705C58.0871 78.6402 59.3258 78.375 60.7045 78.375C62.0909 78.375 63.3144 78.6439 64.375 79.1818C65.4356 79.7121 66.2765 80.4432 66.8977 81.375C67.5189 82.2992 67.8636 83.3561 67.9318 84.5455H66.5341ZM86.4091 84.5455C86.2879 83.0985 85.697 81.928 84.6364 81.0341C83.5833 80.1402 82.2197 79.6932 80.5455 79.6932C79.4167 79.6932 78.4129 79.9015 77.5341 80.3182C76.6553 80.7348 75.9659 81.303 75.4659 82.0227C74.9659 82.7424 74.7159 83.5682 74.7159 84.5C74.7159 85.0985 74.8295 85.6402 75.0568 86.125C75.2917 86.6023 75.6212 87.0303 76.0455 87.4091C76.4697 87.7803 76.9735 88.1061 77.5568 88.3864C78.1402 88.6667 78.7841 88.9129 79.4886 89.125L82.0341 89.875C82.9053 90.1402 83.7083 90.447 84.4432 90.7955C85.1856 91.1439 85.8295 91.5606 86.375 92.0455C86.928 92.5227 87.3561 93.0833 87.6591 93.7273C87.9697 94.3712 88.125 95.1136 88.125 95.9545C88.125 97.1818 87.8068 98.2803 87.1705 99.25C86.5417 100.22 85.6439 100.985 84.4773 101.545C83.3182 102.098 81.9508 102.375 80.375 102.375C78.875 102.375 77.5682 102.121 76.4545 101.614C75.3485 101.106 74.4735 100.402 73.8295 99.5C73.1856 98.5909 72.822 97.5455 72.7386 96.3636H74.1932C74.2689 97.3258 74.5758 98.1591 75.1136 98.8636C75.6591 99.5606 76.3826 100.098 77.2841 100.477C78.1856 100.856 79.2159 101.045 80.375 101.045C81.625 101.045 82.7273 100.833 83.6818 100.409C84.6364 99.9773 85.3826 99.3788 85.9205 98.6136C86.4583 97.8485 86.7273 96.9583 86.7273 95.9432C86.7273 95.125 86.5341 94.4242 86.1477 93.8409C85.7614 93.2576 85.1894 92.7538 84.4318 92.3295C83.6818 91.9053 82.75 91.5265 81.6364 91.1932L78.9205 90.375C77.1023 89.822 75.7121 89.0682 74.75 88.1136C73.7955 87.1591 73.3182 85.9697 73.3182 84.5455C73.3182 83.3485 73.6364 82.2879 74.2727 81.3636C74.9091 80.4318 75.7727 79.7008 76.8636 79.1705C77.9621 78.6402 79.2008 78.375 80.5795 78.375C81.9659 78.375 83.1894 78.6439 84.25 79.1818C85.3106 79.7121 86.1515 80.4432 86.7727 81.375C87.3939 82.2992 87.7386 83.3561 87.8068 84.5455H86.4091Z" fill="white"/>
<path d="M59.7154 65.0982L44.5427 38.688L50.8945 35.0025L63.089 56.2287L74.0219 49.8854L77.0001 55.0694L59.7154 65.0982Z" fill="#00FFB2"/>
<path d="M35.3966 32L50.5692 58.4103L44.2174 62.0957L32.023 40.8695L21.0902 47.2129L18.1119 42.0288L35.3966 32Z" fill="#00FFB2"/>
</svg>
