<svg width="216" height="170" viewBox="0 0 216 170" fill="none" xmlns="http://www.w3.org/2000/svg">
<rect x="0.5" y="0.5" width="95" height="137" stroke="white"/>
<path d="M8.98864 100V76.7273H10.4091V98.6818H21.7727V100H8.98864ZM26.9886 100V76.7273H39.9432V78.0455H28.4091V87.6932H39.25V89.0114H28.4091V98.6818H40.2159V100H26.9886ZM47.2528 76.7273V100H45.8324V76.7273H47.2528ZM66.5341 82.5455C66.4129 81.0985 65.822 79.928 64.7614 79.0341C63.7083 78.1402 62.3447 77.6932 60.6705 77.6932C59.5417 77.6932 58.5379 77.9015 57.6591 78.3182C56.7803 78.7348 56.0909 79.303 55.5909 80.0227C55.0909 80.7424 54.8409 81.5682 54.8409 82.5C54.8409 83.0985 54.9545 83.6402 55.1818 84.125C55.4167 84.6023 55.7462 85.0303 56.1705 85.4091C56.5947 85.7803 57.0985 86.1061 57.6818 86.3864C58.2652 86.6667 58.9091 86.9129 59.6136 87.125L62.1591 87.875C63.0303 88.1402 63.8333 88.447 64.5682 88.7955C65.3106 89.1439 65.9545 89.5606 66.5 90.0455C67.053 90.5227 67.4811 91.0833 67.7841 91.7273C68.0947 92.3712 68.25 93.1136 68.25 93.9545C68.25 95.1818 67.9318 96.2803 67.2955 97.25C66.6667 98.2197 65.7689 98.9848 64.6023 99.5455C63.4432 100.098 62.0758 100.375 60.5 100.375C59 100.375 57.6932 100.121 56.5795 99.6136C55.4735 99.1061 54.5985 98.4015 53.9545 97.5C53.3106 96.5909 52.947 95.5455 52.8636 94.3636H54.3182C54.3939 95.3258 54.7008 96.1591 55.2386 96.8636C55.7841 97.5606 56.5076 98.0985 57.4091 98.4773C58.3106 98.8561 59.3409 99.0455 60.5 99.0455C61.75 99.0455 62.8523 98.8333 63.8068 98.4091C64.7614 97.9773 65.5076 97.3788 66.0455 96.6136C66.5833 95.8485 66.8523 94.9583 66.8523 93.9432C66.8523 93.125 66.6591 92.4242 66.2727 91.8409C65.8864 91.2576 65.3144 90.7538 64.5568 90.3295C63.8068 89.9053 62.875 89.5265 61.7614 89.1932L59.0455 88.375C57.2273 87.822 55.8371 87.0682 54.875 86.1136C53.9205 85.1591 53.4432 83.9697 53.4432 82.5455C53.4432 81.3485 53.7614 80.2879 54.3977 79.3636C55.0341 78.4318 55.8977 77.7008 56.9886 77.1705C58.0871 76.6402 59.3258 76.375 60.7045 76.375C62.0909 76.375 63.3144 76.6439 64.375 77.1818C65.4356 77.7121 66.2765 78.4432 66.8977 79.375C67.5189 80.2992 67.8636 81.3561 67.9318 82.5455H66.5341ZM86.4091 82.5455C86.2879 81.0985 85.697 79.928 84.6364 79.0341C83.5833 78.1402 82.2197 77.6932 80.5455 77.6932C79.4167 77.6932 78.4129 77.9015 77.5341 78.3182C76.6553 78.7348 75.9659 79.303 75.4659 80.0227C74.9659 80.7424 74.7159 81.5682 74.7159 82.5C74.7159 83.0985 74.8295 83.6402 75.0568 84.125C75.2917 84.6023 75.6212 85.0303 76.0455 85.4091C76.4697 85.7803 76.9735 86.1061 77.5568 86.3864C78.1402 86.6667 78.7841 86.9129 79.4886 87.125L82.0341 87.875C82.9053 88.1402 83.7083 88.447 84.4432 88.7955C85.1856 89.1439 85.8295 89.5606 86.375 90.0455C86.928 90.5227 87.3561 91.0833 87.6591 91.7273C87.9697 92.3712 88.125 93.1136 88.125 93.9545C88.125 95.1818 87.8068 96.2803 87.1705 97.25C86.5417 98.2197 85.6439 98.9848 84.4773 99.5455C83.3182 100.098 81.9508 100.375 80.375 100.375C78.875 100.375 77.5682 100.121 76.4545 99.6136C75.3485 99.1061 74.4735 98.4015 73.8295 97.5C73.1856 96.5909 72.822 95.5455 72.7386 94.3636H74.1932C74.2689 95.3258 74.5758 96.1591 75.1136 96.8636C75.6591 97.5606 76.3826 98.0985 77.2841 98.4773C78.1856 98.8561 79.2159 99.0455 80.375 99.0455C81.625 99.0455 82.7273 98.8333 83.6818 98.4091C84.6364 97.9773 85.3826 97.3788 85.9205 96.6136C86.4583 95.8485 86.7273 94.9583 86.7273 93.9432C86.7273 93.125 86.5341 92.4242 86.1477 91.8409C85.7614 91.2576 85.1894 90.7538 84.4318 90.3295C83.6818 89.9053 82.75 89.5265 81.6364 89.1932L78.9205 88.375C77.1023 87.822 75.7121 87.0682 74.75 86.1136C73.7955 85.1591 73.3182 83.9697 73.3182 82.5455C73.3182 81.3485 73.6364 80.2879 74.2727 79.3636C74.9091 78.4318 75.7727 77.7008 76.8636 77.1705C77.9621 76.6402 79.2008 76.375 80.5795 76.375C81.9659 76.375 83.1894 76.6439 84.25 77.1818C85.3106 77.7121 86.1515 78.4432 86.7727 79.375C87.3939 80.2992 87.7386 81.3561 87.8068 82.5455H86.4091Z" fill="white"/>
<path d="M51.4773 61.6951V35.5132H53.8679V59.5473H66.3452V61.6951H51.4773Z" fill="white"/>
<path d="M44.5227 34L44.5227 60.1818L42.1321 60.1818L42.1321 36.1477L29.6548 36.1477L29.6548 34L44.5227 34Z" fill="white"/>
<path d="M4.82728 149L3.99928 144.368L3.11128 149H1.71928L0.579281 142.676H1.59928L2.41528 148.376L3.42328 143.48H4.61128L5.55928 148.376L6.37528 142.676H7.34728L6.25528 149H4.82728ZM9.56259 146.192C9.58659 146.888 9.76659 147.412 10.1026 147.764C10.4466 148.116 10.8786 148.292 11.3986 148.292C11.7106 148.292 11.9946 148.248 12.2506 148.16C12.5146 148.064 12.7946 147.92 13.0906 147.728L13.5586 148.4C13.2626 148.632 12.9226 148.812 12.5386 148.94C12.1626 149.068 11.7826 149.132 11.3986 149.132C10.4866 149.132 9.77459 148.836 9.26259 148.244C8.75859 147.644 8.50659 146.844 8.50659 145.844C8.50659 145.212 8.61859 144.648 8.84259 144.152C9.06659 143.648 9.38659 143.256 9.80259 142.976C10.2186 142.688 10.7026 142.544 11.2546 142.544C12.0546 142.544 12.6826 142.824 13.1386 143.384C13.6026 143.936 13.8346 144.692 13.8346 145.652C13.8346 145.836 13.8266 146.016 13.8106 146.192H9.56259ZM11.2666 143.372C10.7786 143.372 10.3826 143.548 10.0786 143.9C9.77459 144.244 9.60259 144.752 9.56259 145.424H12.8506C12.8426 144.76 12.6986 144.252 12.4186 143.9C12.1386 143.548 11.7546 143.372 11.2666 143.372ZM27.3132 142.544C27.6732 142.544 27.9652 142.672 28.1892 142.928C28.4212 143.176 28.5372 143.632 28.5372 144.296V149H27.6132V144.464C27.6132 144.024 27.5852 143.728 27.5292 143.576C27.4732 143.416 27.3372 143.336 27.1212 143.336C26.7132 143.336 26.3452 143.588 26.0172 144.092V149H25.0812V144.464C25.0812 144.024 25.0532 143.728 24.9972 143.576C24.9412 143.416 24.8052 143.336 24.5892 143.336C24.1812 143.336 23.8132 143.588 23.4852 144.092V149H22.5612V142.676H23.3412L23.4132 143.42C23.6052 143.14 23.8052 142.924 24.0132 142.772C24.2292 142.62 24.4852 142.544 24.7812 142.544C25.3732 142.544 25.7532 142.824 25.9212 143.384C26.1132 143.112 26.3172 142.904 26.5332 142.76C26.7492 142.616 27.0092 142.544 27.3132 142.544ZM34.8805 147.62C34.8805 147.868 34.9205 148.052 35.0005 148.172C35.0805 148.284 35.2125 148.368 35.3965 148.424L35.1445 149.144C34.5285 149.064 34.1445 148.764 33.9925 148.244C33.7685 148.532 33.4845 148.752 33.1405 148.904C32.8045 149.056 32.4285 149.132 32.0125 149.132C31.3805 149.132 30.8805 148.956 30.5125 148.604C30.1525 148.252 29.9725 147.78 29.9725 147.188C29.9725 146.54 30.2245 146.04 30.7285 145.688C31.2405 145.336 31.9725 145.16 32.9245 145.16H33.8605V144.644C33.8605 144.196 33.7325 143.876 33.4765 143.684C33.2205 143.484 32.8485 143.384 32.3605 143.384C31.8805 143.384 31.3325 143.492 30.7165 143.708L30.4405 142.94C31.1845 142.676 31.8765 142.544 32.5165 142.544C33.2845 142.544 33.8685 142.724 34.2685 143.084C34.6765 143.444 34.8805 143.944 34.8805 144.584V147.62ZM32.2645 148.376C32.5765 148.376 32.8725 148.296 33.1525 148.136C33.4405 147.976 33.6765 147.756 33.8605 147.476V145.856H32.9485C32.2765 145.856 31.7925 145.968 31.4965 146.192C31.2005 146.416 31.0525 146.744 31.0525 147.176C31.0525 147.976 31.4565 148.376 32.2645 148.376ZM38.6198 149H37.6118V140.132L38.6198 140.012V149ZM39.9998 145.532L43.1678 149H41.8358L38.7278 145.544L41.5358 142.676H42.8318L39.9998 145.532ZM45.5392 146.192C45.5632 146.888 45.7432 147.412 46.0792 147.764C46.4232 148.116 46.8552 148.292 47.3752 148.292C47.6872 148.292 47.9712 148.248 48.2272 148.16C48.4912 148.064 48.7712 147.92 49.0672 147.728L49.5352 148.4C49.2392 148.632 48.8992 148.812 48.5152 148.94C48.1392 149.068 47.7592 149.132 47.3752 149.132C46.4632 149.132 45.7512 148.836 45.2392 148.244C44.7352 147.644 44.4832 146.844 44.4832 145.844C44.4832 145.212 44.5952 144.648 44.8192 144.152C45.0432 143.648 45.3632 143.256 45.7792 142.976C46.1952 142.688 46.6792 142.544 47.2312 142.544C48.0312 142.544 48.6592 142.824 49.1152 143.384C49.5792 143.936 49.8112 144.692 49.8112 145.652C49.8112 145.836 49.8032 146.016 49.7872 146.192H45.5392ZM47.2432 143.372C46.7552 143.372 46.3592 143.548 46.0552 143.9C45.7512 144.244 45.5792 144.752 45.5392 145.424H48.8272C48.8192 144.76 48.6752 144.252 48.3952 143.9C48.1152 143.548 47.7312 143.372 47.2432 143.372ZM62.3898 149L61.5618 144.368L60.6738 149H59.2818L58.1418 142.676H59.1618L59.9778 148.376L60.9858 143.48H62.1738L63.1218 148.376L63.9378 142.676H64.9098L63.8178 149H62.3898ZM67.1251 146.192C67.1491 146.888 67.3291 147.412 67.6651 147.764C68.0091 148.116 68.4411 148.292 68.9611 148.292C69.2731 148.292 69.5571 148.248 69.8131 148.16C70.0771 148.064 70.3571 147.92 70.6531 147.728L71.1211 148.4C70.8251 148.632 70.4851 148.812 70.1011 148.94C69.7251 149.068 69.3451 149.132 68.9611 149.132C68.0491 149.132 67.3371 148.836 66.8251 148.244C66.3211 147.644 66.0691 146.844 66.0691 145.844C66.0691 145.212 66.1811 144.648 66.4051 144.152C66.6291 143.648 66.9491 143.256 67.3651 142.976C67.7811 142.688 68.2651 142.544 68.8171 142.544C69.6171 142.544 70.2451 142.824 70.7011 143.384C71.1651 143.936 71.3971 144.692 71.3971 145.652C71.3971 145.836 71.3891 146.016 71.3731 146.192H67.1251ZM68.8291 143.372C68.3411 143.372 67.9451 143.548 67.6411 143.9C67.3371 144.244 67.1651 144.752 67.1251 145.424H70.4131C70.4051 144.76 70.2611 144.252 69.9811 143.9C69.7011 143.548 69.3171 143.372 68.8291 143.372ZM74.5244 143.504C75.0124 142.864 75.6164 142.544 76.3364 142.544C77.1444 142.544 77.7404 142.832 78.1244 143.408C78.5084 143.984 78.7004 144.792 78.7004 145.832C78.7004 146.824 78.4804 147.624 78.0404 148.232C77.6004 148.832 76.9844 149.132 76.1924 149.132C75.4644 149.132 74.8924 148.868 74.4764 148.34L74.4044 149H73.5164V140.132L74.5244 140.012V143.504ZM75.9644 148.316C76.4924 148.316 76.8964 148.108 77.1764 147.692C77.4644 147.276 77.6084 146.656 77.6084 145.832C77.6084 145.016 77.4804 144.4 77.2244 143.984C76.9764 143.568 76.6044 143.36 76.1084 143.36C75.7884 143.36 75.4924 143.456 75.2204 143.648C74.9564 143.84 74.7244 144.08 74.5244 144.368V147.5C74.6924 147.756 74.9004 147.956 75.1484 148.1C75.3964 148.244 75.6684 148.316 75.9644 148.316ZM82.8717 148.304C83.3517 148.304 83.7317 148.212 84.0117 148.028C84.2917 147.844 84.4317 147.6 84.4317 147.296C84.4317 147.088 84.3957 146.92 84.3237 146.792C84.2517 146.656 84.1077 146.536 83.8917 146.432C83.6757 146.32 83.3477 146.208 82.9077 146.096C82.1717 145.912 81.6277 145.692 81.2757 145.436C80.9237 145.172 80.7477 144.784 80.7477 144.272C80.7477 143.744 80.9677 143.324 81.4077 143.012C81.8477 142.7 82.4277 142.544 83.1477 142.544C84.0277 142.544 84.7957 142.776 85.4517 143.24L84.9957 143.936C84.7317 143.752 84.4557 143.612 84.1677 143.516C83.8797 143.412 83.5477 143.36 83.1717 143.36C82.2597 143.36 81.8037 143.636 81.8037 144.188C81.8037 144.38 81.8517 144.536 81.9477 144.656C82.0517 144.776 82.2157 144.884 82.4397 144.98C82.6717 145.068 83.0157 145.176 83.4717 145.304C84.1597 145.488 84.6717 145.724 85.0077 146.012C85.3517 146.292 85.5237 146.704 85.5237 147.248C85.5237 147.88 85.2677 148.352 84.7557 148.664C84.2437 148.976 83.6157 149.132 82.8717 149.132C81.8797 149.132 81.0557 148.848 80.3997 148.28L80.9637 147.62C81.2197 147.828 81.5117 147.996 81.8397 148.124C82.1677 148.244 82.5117 148.304 82.8717 148.304ZM90.307 139.724C90.531 139.724 90.711 139.792 90.847 139.928C90.983 140.056 91.051 140.224 91.051 140.432C91.051 140.64 90.983 140.812 90.847 140.948C90.711 141.076 90.531 141.14 90.307 141.14C90.091 141.14 89.915 141.076 89.779 140.948C89.651 140.812 89.587 140.64 89.587 140.432C89.587 140.224 89.651 140.056 89.779 139.928C89.915 139.792 90.091 139.724 90.307 139.724ZM91.111 148.196H92.887V149H88.159V148.196H90.103V143.48H88.219V142.676H91.111V148.196ZM100.13 148.676C99.9143 148.82 99.6503 148.932 99.3383 149.012C99.0343 149.092 98.7303 149.132 98.4263 149.132C97.7623 149.132 97.2423 148.96 96.8663 148.616C96.4903 148.264 96.3023 147.804 96.3023 147.236V143.468H94.8503V142.676H96.3023V141.248L97.3103 141.128V142.676H99.5063L99.3743 143.468H97.3103V147.224C97.3103 147.584 97.4063 147.852 97.5983 148.028C97.7903 148.204 98.0983 148.292 98.5223 148.292C98.9543 148.292 99.3583 148.192 99.7343 147.992L100.13 148.676ZM103.102 146.192C103.126 146.888 103.306 147.412 103.642 147.764C103.986 148.116 104.418 148.292 104.938 148.292C105.25 148.292 105.534 148.248 105.79 148.16C106.054 148.064 106.334 147.92 106.63 147.728L107.098 148.4C106.802 148.632 106.462 148.812 106.078 148.94C105.702 149.068 105.322 149.132 104.938 149.132C104.026 149.132 103.314 148.836 102.802 148.244C102.298 147.644 102.046 146.844 102.046 145.844C102.046 145.212 102.158 144.648 102.382 144.152C102.606 143.648 102.926 143.256 103.342 142.976C103.758 142.688 104.242 142.544 104.794 142.544C105.594 142.544 106.222 142.824 106.678 143.384C107.142 143.936 107.374 144.692 107.374 145.652C107.374 145.836 107.366 146.016 107.35 146.192H103.102ZM104.806 143.372C104.318 143.372 103.922 143.548 103.618 143.9C103.314 144.244 103.142 144.752 103.102 145.424H106.39C106.382 144.76 106.238 144.252 105.958 143.9C105.678 143.548 105.294 143.372 104.806 143.372ZM111.653 148.304C112.133 148.304 112.513 148.212 112.793 148.028C113.073 147.844 113.213 147.6 113.213 147.296C113.213 147.088 113.177 146.92 113.105 146.792C113.033 146.656 112.889 146.536 112.673 146.432C112.457 146.32 112.129 146.208 111.689 146.096C110.953 145.912 110.409 145.692 110.057 145.436C109.705 145.172 109.529 144.784 109.529 144.272C109.529 143.744 109.749 143.324 110.189 143.012C110.629 142.7 111.209 142.544 111.929 142.544C112.809 142.544 113.577 142.776 114.233 143.24L113.777 143.936C113.513 143.752 113.237 143.612 112.949 143.516C112.661 143.412 112.329 143.36 111.953 143.36C111.041 143.36 110.585 143.636 110.585 144.188C110.585 144.38 110.633 144.536 110.729 144.656C110.833 144.776 110.997 144.884 111.221 144.98C111.453 145.068 111.797 145.176 112.253 145.304C112.941 145.488 113.453 145.724 113.789 146.012C114.133 146.292 114.305 146.704 114.305 147.248C114.305 147.88 114.049 148.352 113.537 148.664C113.025 148.976 112.397 149.132 111.653 149.132C110.661 149.132 109.837 148.848 109.181 148.28L109.745 147.62C110.001 147.828 110.293 147.996 110.621 148.124C110.949 148.244 111.293 148.304 111.653 148.304ZM126.752 148.268C127.304 148.268 127.852 148.084 128.396 147.716L128.876 148.376C128.612 148.608 128.284 148.792 127.892 148.928C127.5 149.064 127.12 149.132 126.752 149.132C125.816 149.132 125.084 148.84 124.556 148.256C124.036 147.664 123.776 146.868 123.776 145.868C123.776 145.236 123.892 144.668 124.124 144.164C124.364 143.66 124.708 143.264 125.156 142.976C125.604 142.688 126.136 142.544 126.752 142.544C127.568 142.544 128.272 142.792 128.864 143.288L128.372 143.948C127.82 143.58 127.276 143.396 126.74 143.396C126.172 143.396 125.716 143.608 125.372 144.032C125.036 144.448 124.868 145.06 124.868 145.868C124.868 146.676 125.036 147.28 125.372 147.68C125.716 148.072 126.176 148.268 126.752 148.268ZM133.491 142.544C134.363 142.544 135.031 142.84 135.495 143.432C135.967 144.016 136.203 144.816 136.203 145.832C136.203 146.824 135.963 147.624 135.483 148.232C135.011 148.832 134.343 149.132 133.479 149.132C132.607 149.132 131.935 148.84 131.463 148.256C130.991 147.664 130.755 146.86 130.755 145.844C130.755 144.844 130.991 144.044 131.463 143.444C131.943 142.844 132.619 142.544 133.491 142.544ZM133.491 143.372C132.939 143.372 132.527 143.576 132.255 143.984C131.983 144.392 131.847 145.012 131.847 145.844C131.847 146.676 131.979 147.296 132.243 147.704C132.515 148.104 132.927 148.304 133.479 148.304C134.031 148.304 134.439 148.104 134.703 147.704C134.975 147.296 135.111 146.672 135.111 145.832C135.111 145 134.975 144.384 134.703 143.984C134.439 143.576 134.035 143.372 133.491 143.372ZM142.438 142.544C142.798 142.544 143.09 142.672 143.314 142.928C143.546 143.176 143.662 143.632 143.662 144.296V149H142.738V144.464C142.738 144.024 142.71 143.728 142.654 143.576C142.598 143.416 142.462 143.336 142.246 143.336C141.838 143.336 141.47 143.588 141.142 144.092V149H140.206V144.464C140.206 144.024 140.178 143.728 140.122 143.576C140.066 143.416 139.93 143.336 139.714 143.336C139.306 143.336 138.938 143.588 138.61 144.092V149H137.686V142.676H138.466L138.538 143.42C138.73 143.14 138.93 142.924 139.138 142.772C139.354 142.62 139.61 142.544 139.906 142.544C140.498 142.544 140.878 142.824 141.046 143.384C141.238 143.112 141.442 142.904 141.658 142.76C141.874 142.616 142.134 142.544 142.438 142.544ZM146.274 146.192C146.298 146.888 146.478 147.412 146.814 147.764C147.158 148.116 147.59 148.292 148.11 148.292C148.422 148.292 148.706 148.248 148.962 148.16C149.226 148.064 149.506 147.92 149.802 147.728L150.27 148.4C149.974 148.632 149.634 148.812 149.25 148.94C148.874 149.068 148.494 149.132 148.11 149.132C147.198 149.132 146.486 148.836 145.974 148.244C145.47 147.644 145.218 146.844 145.218 145.844C145.218 145.212 145.33 144.648 145.554 144.152C145.778 143.648 146.098 143.256 146.514 142.976C146.93 142.688 147.414 142.544 147.966 142.544C148.766 142.544 149.394 142.824 149.85 143.384C150.314 143.936 150.546 144.692 150.546 145.652C150.546 145.836 150.538 146.016 150.522 146.192H146.274ZM147.978 143.372C147.49 143.372 147.094 143.548 146.79 143.9C146.486 144.244 146.314 144.752 146.274 145.424H149.562C149.554 144.76 149.41 144.252 149.13 143.9C148.85 143.548 148.466 143.372 147.978 143.372ZM164.396 147.62C164.396 147.868 164.436 148.052 164.516 148.172C164.596 148.284 164.728 148.368 164.912 148.424L164.66 149.144C164.044 149.064 163.66 148.764 163.508 148.244C163.284 148.532 163 148.752 162.656 148.904C162.32 149.056 161.944 149.132 161.528 149.132C160.896 149.132 160.396 148.956 160.028 148.604C159.668 148.252 159.488 147.78 159.488 147.188C159.488 146.54 159.74 146.04 160.244 145.688C160.756 145.336 161.488 145.16 162.44 145.16H163.376V144.644C163.376 144.196 163.248 143.876 162.992 143.684C162.736 143.484 162.364 143.384 161.876 143.384C161.396 143.384 160.848 143.492 160.232 143.708L159.956 142.94C160.7 142.676 161.392 142.544 162.032 142.544C162.8 142.544 163.384 142.724 163.784 143.084C164.192 143.444 164.396 143.944 164.396 144.584V147.62ZM161.78 148.376C162.092 148.376 162.388 148.296 162.668 148.136C162.956 147.976 163.192 147.756 163.376 147.476V145.856H162.464C161.792 145.856 161.308 145.968 161.012 146.192C160.716 146.416 160.568 146.744 160.568 147.176C160.568 147.976 160.972 148.376 161.78 148.376ZM169.527 147.44C169.527 148.008 169.875 148.292 170.571 148.292C170.899 148.292 171.251 148.22 171.627 148.076L171.891 148.808C171.491 149.024 170.991 149.132 170.391 149.132C169.823 149.132 169.367 148.976 169.023 148.664C168.687 148.352 168.519 147.928 168.519 147.392V140.936H166.575V140.132H169.527V147.44ZM176.651 139.724C176.875 139.724 177.055 139.792 177.191 139.928C177.327 140.056 177.395 140.224 177.395 140.432C177.395 140.64 177.327 140.812 177.191 140.948C177.055 141.076 176.875 141.14 176.651 141.14C176.435 141.14 176.259 141.076 176.123 140.948C175.995 140.812 175.931 140.64 175.931 140.432C175.931 140.224 175.995 140.056 176.123 139.928C176.259 139.792 176.435 139.724 176.651 139.724ZM177.455 148.196H179.231V149H174.503V148.196H176.447V143.48H174.563V142.676H177.455V148.196ZM184.422 149H183.258L180.966 142.676H182.046L183.87 148.088L185.67 142.676H186.726L184.422 149ZM189.445 146.192C189.469 146.888 189.649 147.412 189.985 147.764C190.329 148.116 190.761 148.292 191.281 148.292C191.593 148.292 191.877 148.248 192.133 148.16C192.397 148.064 192.677 147.92 192.973 147.728L193.441 148.4C193.145 148.632 192.805 148.812 192.421 148.94C192.045 149.068 191.665 149.132 191.281 149.132C190.369 149.132 189.657 148.836 189.145 148.244C188.641 147.644 188.389 146.844 188.389 145.844C188.389 145.212 188.501 144.648 188.725 144.152C188.949 143.648 189.269 143.256 189.685 142.976C190.101 142.688 190.585 142.544 191.137 142.544C191.937 142.544 192.565 142.824 193.021 143.384C193.485 143.936 193.717 144.692 193.717 145.652C193.717 145.836 193.709 146.016 193.693 146.192H189.445ZM191.149 143.372C190.661 143.372 190.265 143.548 189.961 143.9C189.657 144.244 189.485 144.752 189.445 145.424H192.733C192.725 144.76 192.581 144.252 192.301 143.9C192.021 143.548 191.637 143.372 191.149 143.372Z" fill="white"/>
<path d="M1.70231 158.732H2.73431V166.076H6.51431L6.38231 167H1.70231V158.732ZM9.80963 162.38H12.8816V163.232H9.80963V166.16H13.5776V167H8.77763V158.732H13.4696L13.3496 159.596H9.80963V162.38ZM18.5649 167H17.5209V159.632H14.9409V158.732H21.1689L21.0609 159.632H18.5649V167ZM24.4163 158.408C24.4163 158.168 24.5083 157.964 24.6923 157.796C24.8763 157.62 25.0883 157.532 25.3283 157.532C25.5843 157.532 25.8003 157.616 25.9763 157.784C26.1603 157.952 26.2523 158.16 26.2523 158.408C26.2523 158.52 26.2363 158.632 26.2043 158.744C26.1723 158.856 26.1123 159.008 26.0243 159.2L25.0403 161.276H24.2483L24.7402 159.068C24.6443 158.996 24.5643 158.904 24.5003 158.792C24.4443 158.672 24.4163 158.544 24.4163 158.408ZM35.2956 164.708C35.2956 165.188 35.1756 165.612 34.9356 165.98C34.6956 166.34 34.3476 166.624 33.8916 166.832C33.4356 167.032 32.8956 167.132 32.2716 167.132C31.6716 167.132 31.1236 167.044 30.6276 166.868C30.1396 166.684 29.7196 166.424 29.3676 166.088L29.9916 165.38C30.2956 165.668 30.6316 165.888 30.9996 166.04C31.3756 166.192 31.8036 166.268 32.2836 166.268C32.8276 166.268 33.2836 166.136 33.6516 165.872C34.0196 165.608 34.2036 165.228 34.2036 164.732C34.2036 164.452 34.1516 164.22 34.0476 164.036C33.9436 163.852 33.7596 163.688 33.4956 163.544C33.2396 163.4 32.8756 163.26 32.4036 163.124C31.5076 162.86 30.8396 162.552 30.3996 162.2C29.9596 161.84 29.7396 161.352 29.7396 160.736C29.7396 160.328 29.8516 159.96 30.0756 159.632C30.2996 159.304 30.6156 159.052 31.0236 158.876C31.4316 158.692 31.8956 158.6 32.4156 158.6C32.9596 158.6 33.4436 158.68 33.8676 158.84C34.2996 159 34.6956 159.236 35.0556 159.548L34.4316 160.22C33.8636 159.724 33.2036 159.476 32.4516 159.476C31.9716 159.476 31.5756 159.58 31.2636 159.788C30.9516 159.996 30.7956 160.3 30.7956 160.7C30.7956 160.94 30.8596 161.144 30.9876 161.312C31.1156 161.48 31.3276 161.636 31.6236 161.78C31.9196 161.924 32.3356 162.072 32.8716 162.224C33.6476 162.448 34.2436 162.74 34.6596 163.1C35.0836 163.46 35.2956 163.996 35.2956 164.708ZM50.0822 167H49.0742L48.8222 162.68C48.7742 161.92 48.7502 160.924 48.7502 159.692L47.3582 165.512H46.3142L44.8262 159.692C44.8422 159.98 44.8502 160.364 44.8502 160.844C44.8502 161.58 44.8342 162.192 44.8022 162.68L44.5862 167H43.6022L44.0702 158.732H45.5222L46.8662 164.396L48.1502 158.732H49.6142L50.0822 167ZM52.3695 164.888L51.7095 167H50.6775L53.3775 158.732H54.6975L57.3855 167H56.3055L55.6455 164.888H52.3695ZM55.3695 164.024L54.0135 159.62L52.6455 164.024H55.3695ZM58.8928 167V158.732H59.9368V167H58.8928ZM63.2368 158.732H64.4488L61.2208 162.524L64.6768 167H63.3688L59.9968 162.584L63.2368 158.732ZM67.3721 162.38H70.4441V163.232H67.3721V166.16H71.1401V167H66.3401V158.732H71.0321L70.9121 159.596H67.3721V162.38ZM83.3468 167H82.2908V163.82L79.4948 158.732H80.6468L82.8428 162.884L85.0628 158.732H86.1428L83.3468 163.808V167ZM93.0501 162.872C93.0501 164.16 92.7861 165.192 92.2581 165.968C91.7381 166.744 90.9901 167.132 90.0141 167.132C89.0301 167.132 88.2781 166.752 87.7581 165.992C87.2381 165.232 86.9781 164.196 86.9781 162.884C86.9781 162.044 87.0941 161.3 87.3261 160.652C87.5581 160.004 87.9021 159.5 88.3581 159.14C88.8141 158.78 89.3661 158.6 90.0141 158.6C90.9901 158.6 91.7381 158.988 92.2581 159.764C92.7861 160.532 93.0501 161.568 93.0501 162.872ZM91.9701 162.872C91.9701 161.744 91.8141 160.896 91.5021 160.328C91.1901 159.76 90.6941 159.476 90.0141 159.476C89.3341 159.476 88.8381 159.764 88.5261 160.34C88.2141 160.908 88.0581 161.756 88.0581 162.884C88.0581 164.004 88.2141 164.848 88.5261 165.416C88.8461 165.976 89.3421 166.256 90.0141 166.256C90.6941 166.256 91.1901 165.976 91.5021 165.416C91.8141 164.848 91.9701 164 91.9701 162.872ZM99.9454 164.324C99.9454 164.876 99.8294 165.368 99.5974 165.8C99.3734 166.224 99.0534 166.552 98.6374 166.784C98.2294 167.016 97.7494 167.132 97.1974 167.132C96.6374 167.132 96.1534 167.016 95.7454 166.784C95.3374 166.544 95.0214 166.212 94.7974 165.788C94.5814 165.364 94.4734 164.876 94.4734 164.324V158.732H95.5174V164.36C95.5174 164.984 95.6614 165.452 95.9494 165.764C96.2374 166.076 96.6534 166.232 97.1974 166.232C97.7414 166.232 98.1574 166.076 98.4454 165.764C98.7414 165.452 98.8894 164.984 98.8894 164.36V158.732H99.9454V164.324ZM107.249 161.06C107.249 161.652 107.065 162.144 106.697 162.536C106.329 162.92 105.841 163.188 105.233 163.34L107.693 167H106.445L104.177 163.46H103.061V167H102.029V158.732H104.141C105.165 158.732 105.937 158.928 106.457 159.32C106.985 159.712 107.249 160.292 107.249 161.06ZM106.145 161.06C106.145 160.532 105.993 160.152 105.689 159.92C105.385 159.688 104.909 159.572 104.261 159.572H103.061V162.644H104.273C104.889 162.644 105.353 162.52 105.665 162.272C105.985 162.016 106.145 161.612 106.145 161.06ZM121.087 167H119.719L118.771 160.76L117.811 167H116.407L115.255 158.732H116.299L117.175 165.86L118.171 159.692H119.443L120.391 165.86L121.375 158.732H122.335L121.087 167ZM124.935 162.38H128.007V163.232H124.935V166.16H128.703V167H123.903V158.732H128.595L128.475 159.596H124.935V162.38ZM136.066 164.648C136.066 165.48 135.766 166.08 135.166 166.448C134.574 166.816 133.842 167 132.97 167H130.738V158.732H132.778C133.618 158.732 134.314 158.896 134.866 159.224C135.426 159.544 135.706 160.076 135.706 160.82C135.706 161.316 135.558 161.716 135.262 162.02C134.966 162.316 134.598 162.516 134.158 162.62C135.43 162.836 136.066 163.512 136.066 164.648ZM134.638 160.88C134.638 160.424 134.498 160.096 134.218 159.896C133.938 159.688 133.538 159.584 133.018 159.584H131.782V162.248H133.114C134.13 162.248 134.638 161.792 134.638 160.88ZM134.962 164.684C134.962 164.1 134.802 163.692 134.482 163.46C134.17 163.228 133.738 163.112 133.186 163.112H131.782V166.136H133.15C133.654 166.136 134.082 166.032 134.434 165.824C134.786 165.616 134.962 165.236 134.962 164.684ZM143.225 164.708C143.225 165.188 143.105 165.612 142.865 165.98C142.625 166.34 142.277 166.624 141.821 166.832C141.365 167.032 140.825 167.132 140.201 167.132C139.601 167.132 139.053 167.044 138.557 166.868C138.069 166.684 137.649 166.424 137.297 166.088L137.921 165.38C138.225 165.668 138.561 165.888 138.929 166.04C139.305 166.192 139.733 166.268 140.213 166.268C140.757 166.268 141.213 166.136 141.581 165.872C141.949 165.608 142.133 165.228 142.133 164.732C142.133 164.452 142.081 164.22 141.977 164.036C141.873 163.852 141.689 163.688 141.425 163.544C141.169 163.4 140.805 163.26 140.333 163.124C139.437 162.86 138.769 162.552 138.329 162.2C137.889 161.84 137.669 161.352 137.669 160.736C137.669 160.328 137.781 159.96 138.005 159.632C138.229 159.304 138.545 159.052 138.953 158.876C139.361 158.692 139.825 158.6 140.345 158.6C140.889 158.6 141.373 158.68 141.797 158.84C142.229 159 142.625 159.236 142.985 159.548L142.361 160.22C141.793 159.724 141.133 159.476 140.381 159.476C139.901 159.476 139.505 159.58 139.193 159.788C138.881 159.996 138.725 160.3 138.725 160.7C138.725 160.94 138.789 161.144 138.917 161.312C139.045 161.48 139.257 161.636 139.553 161.78C139.849 161.924 140.265 162.072 140.801 162.224C141.577 162.448 142.173 162.74 142.589 163.1C143.013 163.46 143.225 163.996 143.225 164.708ZM149.941 159.572H148.105V166.172H149.941V167H145.213V166.172H147.049V159.572H145.213V158.732H149.941V159.572ZM155.276 167H154.232V159.632H151.652V158.732H157.88L157.772 159.632H155.276V167ZM160.911 162.38H163.983V163.232H160.911V166.16H164.679V167H159.879V158.732H164.571L164.451 159.596H160.911V162.38ZM179.202 164.708C179.202 165.188 179.082 165.612 178.842 165.98C178.602 166.34 178.254 166.624 177.798 166.832C177.342 167.032 176.802 167.132 176.178 167.132C175.578 167.132 175.03 167.044 174.534 166.868C174.046 166.684 173.626 166.424 173.274 166.088L173.898 165.38C174.202 165.668 174.538 165.888 174.906 166.04C175.282 166.192 175.71 166.268 176.19 166.268C176.734 166.268 177.19 166.136 177.558 165.872C177.926 165.608 178.11 165.228 178.11 164.732C178.11 164.452 178.058 164.22 177.954 164.036C177.85 163.852 177.666 163.688 177.402 163.544C177.146 163.4 176.782 163.26 176.31 163.124C175.414 162.86 174.746 162.552 174.306 162.2C173.866 161.84 173.646 161.352 173.646 160.736C173.646 160.328 173.758 159.96 173.982 159.632C174.206 159.304 174.522 159.052 174.93 158.876C175.338 158.692 175.802 158.6 176.322 158.6C176.866 158.6 177.35 158.68 177.774 158.84C178.206 159 178.602 159.236 178.962 159.548L178.338 160.22C177.77 159.724 177.11 159.476 176.358 159.476C175.878 159.476 175.482 159.58 175.17 159.788C174.858 159.996 174.702 160.3 174.702 160.7C174.702 160.94 174.766 161.144 174.894 161.312C175.022 161.48 175.234 161.636 175.53 161.78C175.826 161.924 176.242 162.072 176.778 162.224C177.554 162.448 178.15 162.74 178.566 163.1C178.99 163.46 179.202 163.996 179.202 164.708ZM185.113 163.076H181.993V167H180.949V158.732H181.993V162.224H185.113V158.732H186.157V167H185.113V163.076ZM193.112 159.572H191.276V166.172H193.112V167H188.384V166.172H190.22V159.572H188.384V158.732H193.112V159.572ZM196.168 159.74C196.168 159.796 196.192 160.144 196.24 160.784C196.288 161.424 196.312 162.116 196.312 162.86V167H195.34V158.732H196.756L199.72 166.028L199.696 165.596C199.616 164.612 199.576 163.704 199.576 162.872V158.732H200.548V167H199.084L196.168 159.74ZM204.083 162.38H207.155V163.232H204.083V166.16H207.851V167H203.051V158.732H207.743L207.623 159.596H204.083V162.38ZM211.266 166.076C211.266 165.78 211.366 165.532 211.566 165.332C211.774 165.124 212.026 165.02 212.322 165.02C212.626 165.02 212.878 165.124 213.078 165.332C213.278 165.532 213.378 165.78 213.378 166.076C213.378 166.38 213.278 166.632 213.078 166.832C212.878 167.032 212.626 167.132 212.322 167.132C212.026 167.132 211.774 167.032 211.566 166.832C211.366 166.624 211.266 166.372 211.266 166.076Z" fill="white"/>
</svg>
