<svg width="368" height="431" viewBox="0 0 368 431" fill="none" xmlns="http://www.w3.org/2000/svg">
<path d="M214.468 351.837V121.544H235.415V332.946H344.738V351.837H214.468Z" fill="#00FFB2"/>
<path d="M153.532 79.1633V309.456H132.586V98.0544H23.2614V79.1633H153.532Z" fill="#00FFB2"/>
<path d="M28.5442 64.4697L23 46.1174L25.2476 46.1174L29.5954 61.2557L29.751 61.2557L34.0862 46.1174L36.3442 46.1174L40.6437 61.2197L40.8119 61.2197L45.1597 46.1174L47.4052 46.1174L41.8631 64.4697L39.6661 64.4697L35.3161 49.4271L35.0891 49.4271L30.7412 64.4697L28.5442 64.4697ZM58.3336 64.852C56.6202 64.852 55.14 64.4537 53.8891 63.6571C52.6381 62.8528 51.671 61.7416 50.9856 60.3237C50.3086 58.8979 49.9701 57.2571 49.9701 55.4011C49.9701 53.5531 50.3086 51.9123 50.9856 50.4785C51.671 49.0368 52.615 47.9097 53.8176 47.0971C55.0286 46.2768 56.4267 45.8665 58.0099 45.8665C59.0064 45.8665 59.9651 46.0497 60.8902 46.4162C61.8132 46.7745 62.6415 47.3282 63.3732 48.0768C64.1154 48.8177 64.6998 49.7537 65.1308 50.8848C65.5597 52.0079 65.7763 53.338 65.7763 54.8754L65.7763 55.9268L51.4397 55.9268L51.4397 54.0511L63.6003 54.0511C63.6003 52.8722 63.3627 51.8128 62.8854 50.8728C62.4145 49.9248 61.7585 49.1762 60.9133 48.6265C60.0766 48.0769 59.1094 47.8022 58.0098 47.8022C56.8472 47.8022 55.8254 48.1128 54.9403 48.734C54.0573 49.3554 53.3635 50.1759 52.861 51.1954C52.369 52.2151 52.1167 53.3302 52.1104 54.5408L52.1104 55.664C52.1104 57.1217 52.3606 58.396 52.861 59.4874C53.3719 60.5706 54.093 61.4111 55.0244 62.0083C55.9558 62.6057 57.0596 62.9045 58.3336 62.9045C59.2019 62.9045 59.9609 62.7691 60.6148 62.4982C61.2749 62.2274 61.83 61.8651 62.2757 61.4111C62.7298 60.9491 63.0725 60.4431 63.3017 59.8936L65.3222 60.5508C65.0425 61.3234 64.5842 62.0362 63.9471 62.6894C63.3185 63.3425 62.5301 63.8683 61.5819 64.2665C60.6421 64.6568 59.5594 64.852 58.3336 64.852ZM70.902 64.4697L70.902 40L73.0423 40L73.0423 49.6182L73.2315 49.6182C73.4712 49.0686 73.8139 48.5031 74.2596 47.9217C74.7137 47.3402 75.3066 46.8543 76.0404 46.464C76.7804 46.0657 77.7118 45.8665 78.8345 45.8665C80.3399 45.8665 81.6623 46.2648 82.8018 47.0614C83.9392 47.85 84.8286 48.9571 85.4656 50.3828C86.1027 51.8008 86.4201 53.4536 86.4201 55.3414C86.4201 57.2371 86.1027 58.8979 85.4656 60.3237C84.8349 61.7494 83.9519 62.8608 82.8124 63.6571C81.6812 64.4537 80.3672 64.852 78.8703 64.852C77.756 64.852 76.8246 64.6528 76.0761 64.2546C75.334 63.8563 74.7369 63.3665 74.2827 62.7851C73.8307 62.1956 73.4796 61.622 73.2315 61.0645L72.9687 61.0645L72.9687 64.4697L70.902 64.4697ZM73.0045 55.3054C73.0045 56.7871 73.2252 58.1014 73.6625 59.2483C74.1082 60.3874 74.7453 61.2836 75.5736 61.9368C76.4104 62.5819 77.4217 62.9045 78.6075 62.9045C79.8269 62.9045 80.8571 62.57 81.7023 61.9008C82.5453 61.2237 83.1866 60.3117 83.626 59.1648C84.0633 58.0177 84.2819 56.7314 84.2819 55.3054C84.2819 53.8957 84.0633 52.6251 83.626 51.494C83.195 50.3631 82.5579 49.4668 81.7149 48.8057C80.8697 48.1368 79.8353 47.8022 78.6075 47.8022C77.4133 47.8022 76.3978 48.1248 75.561 48.77C74.7327 49.4071 74.0998 50.2914 73.6625 51.4225C73.2252 52.5454 73.0045 53.8399 73.0045 55.3054ZM107.159 64.852C105.653 64.852 104.335 64.4537 103.204 63.6571C102.073 62.8608 101.19 61.7494 100.553 60.3237C99.922 58.8979 99.6087 57.2371 99.6087 55.3414C99.6087 53.4536 99.922 51.8008 100.553 50.3829C101.19 48.9571 102.077 47.85 103.216 47.0614C104.354 46.2648 105.681 45.8665 107.194 45.8665C108.309 45.8665 109.236 46.0657 109.978 46.464C110.718 46.8543 111.311 47.3402 111.757 47.9217C112.202 48.5031 112.549 49.0686 112.797 49.6182L112.989 49.6182L112.989 40L115.127 40L115.127 64.4697L113.048 64.4697L113.048 61.0645L112.797 61.0645C112.549 61.622 112.2 62.1956 111.746 62.7851C111.292 63.3665 110.691 63.8563 109.942 64.2546C109.2 64.6528 108.273 64.852 107.159 64.852ZM107.409 62.9045C108.595 62.9045 109.608 62.5819 110.443 61.9368C111.279 61.2836 111.916 60.3874 112.354 59.2483C112.799 58.1014 113.024 56.7871 113.024 55.3054C113.024 53.8399 112.804 52.5454 112.366 51.4225C111.929 50.2914 111.292 49.4071 110.455 48.77C109.618 48.1248 108.603 47.8022 107.409 47.8022C106.183 47.8022 105.147 48.1368 104.303 48.8057C103.467 49.4668 102.83 50.3631 102.392 51.494C101.961 52.6251 101.747 53.8957 101.747 55.3054C101.747 56.7314 101.966 58.0177 102.403 59.1648C102.842 60.3117 103.479 61.2237 104.316 61.9008C105.159 62.57 106.191 62.9045 107.409 62.9045ZM128.601 64.852C126.888 64.852 125.408 64.4537 124.157 63.6571C122.906 62.8528 121.939 61.7416 121.253 60.3237C120.576 58.8979 120.238 57.2571 120.238 55.4011C120.238 53.5531 120.576 51.9123 121.253 50.4785C121.939 49.0368 122.883 47.9097 124.085 47.0971C125.296 46.2768 126.692 45.8665 128.278 45.8665C129.274 45.8665 130.233 46.0497 131.158 46.4162C132.081 46.7746 132.909 47.3282 133.641 48.0769C134.383 48.8177 134.968 49.7537 135.399 50.8848C135.827 52.0079 136.042 53.338 136.042 54.8754L136.042 55.9268L121.707 55.9268L121.707 54.0511L133.868 54.0511C133.868 52.872 133.63 51.8128 133.151 50.8728C132.682 49.9248 132.024 49.1762 131.181 48.6265C130.344 48.0769 129.377 47.8022 128.278 47.8022C127.115 47.8022 126.091 48.1128 125.208 48.734C124.325 49.3554 123.631 50.1759 123.129 51.1954C122.637 52.2151 122.384 53.3302 122.376 54.5408L122.376 55.664C122.376 57.1217 122.628 58.396 123.129 59.4874C123.64 60.5706 124.361 61.4111 125.292 62.0083C126.224 62.6057 127.327 62.9045 128.601 62.9045C129.47 62.9045 130.229 62.7691 130.882 62.4982C131.543 62.2274 132.098 61.8651 132.543 61.4111C132.998 60.9491 133.338 60.4431 133.569 59.8936L135.59 60.5508C135.31 61.3234 134.852 62.0363 134.215 62.6894C133.586 63.3425 132.798 63.8683 131.85 64.2665C130.91 64.6568 129.827 64.852 128.601 64.852ZM154.373 46.1174L147.673 64.4697L145.402 64.4697L138.701 46.1174L141.006 46.1174L146.453 61.6619L146.621 61.6619L152.069 46.1174L154.373 46.1174ZM165.295 64.852C163.582 64.852 162.102 64.4537 160.851 63.6571C159.6 62.8528 158.633 61.7416 157.947 60.3237C157.27 58.8979 156.932 57.2571 156.932 55.4011C156.932 53.5531 157.27 51.9123 157.947 50.4785C158.633 49.0368 159.577 47.9097 160.779 47.0971C161.99 46.2768 163.388 45.8665 164.971 45.8665C165.968 45.8665 166.927 46.0497 167.852 46.4162C168.775 46.7746 169.603 47.3282 170.335 48.0769C171.077 48.8177 171.661 49.7537 172.092 50.8848C172.521 52.0079 172.738 53.338 172.738 54.8754L172.738 55.9268L158.401 55.9268L158.401 54.0511L170.562 54.0511C170.562 52.872 170.324 51.8128 169.847 50.8728C169.376 49.9248 168.72 49.1762 167.875 48.6265C167.038 48.0769 166.071 47.8022 164.971 47.8022C163.809 47.8022 162.787 48.1128 161.902 48.734C161.019 49.3554 160.325 50.1759 159.823 51.1954C159.331 52.2149 159.078 53.3302 159.072 54.5408L159.072 55.664C159.072 57.1217 159.322 58.396 159.823 59.4874C160.333 60.5706 161.055 61.4111 161.986 62.0083C162.917 62.6057 164.021 62.9045 165.295 62.9045C166.164 62.9045 166.923 62.7691 167.576 62.4983C168.237 62.2274 168.792 61.8651 169.237 61.4111C169.691 60.9491 170.034 60.4431 170.263 59.8936L172.284 60.5508C172.004 61.3234 171.546 62.0363 170.909 62.6894C170.28 63.3425 169.492 63.8683 168.543 64.2665C167.604 64.6568 166.521 64.852 165.295 64.852ZM179.55 40L179.55 64.4697L177.422 64.4697L177.422 40L179.55 40ZM192.307 64.852C190.722 64.852 189.32 64.4497 188.102 63.6454C186.891 62.8408 185.944 61.7297 185.259 60.3117C184.574 58.886 184.232 57.2411 184.232 55.3771C184.232 53.4974 184.574 51.8445 185.259 50.4188C185.944 48.9851 186.891 47.8699 188.102 47.0734C189.32 46.2688 190.722 45.8665 192.307 45.8665C193.892 45.8665 195.289 46.2688 196.5 47.0734C197.71 47.8777 198.658 48.9931 199.343 50.4188C200.036 51.8445 200.382 53.4974 200.382 55.3771C200.382 57.2411 200.04 58.886 199.355 60.3117C198.67 61.7297 197.718 62.8408 196.5 63.6454C195.289 64.4497 193.892 64.852 192.307 64.852ZM192.307 62.9045C193.581 62.9045 194.66 62.562 195.544 61.8769C196.428 61.192 197.097 60.2799 197.551 59.1408C198.013 58.0017 198.244 56.7474 198.244 55.3771C198.244 54.0071 198.013 52.7486 197.551 51.6017C197.097 50.4546 196.428 49.5346 195.544 48.8417C194.66 48.1486 193.581 47.8022 192.307 47.8022C191.041 47.8022 189.961 48.1486 189.07 48.8417C188.186 49.5346 187.513 50.4546 187.051 51.6017C186.597 52.7486 186.37 54.0071 186.37 55.3771C186.37 56.7474 186.597 58.0017 187.051 59.1408C187.513 60.2799 188.186 61.192 189.07 61.8769C189.954 62.562 191.033 62.9045 192.307 62.9045ZM205.05 71.3517L205.05 46.1174L207.117 46.1174L207.117 49.6183L207.367 49.6183C207.622 49.0686 207.973 48.5071 208.419 47.9337C208.865 47.352 209.454 46.8622 210.187 46.464C210.927 46.0657 211.859 45.8665 212.982 45.8665C214.495 45.8665 215.817 46.2648 216.948 47.0614C218.087 47.85 218.971 48.9571 219.6 50.3829C220.237 51.8008 220.556 53.4537 220.556 55.3414C220.556 57.2371 220.237 58.898 219.6 60.3237C218.971 61.7494 218.087 62.8606 216.948 63.6571C215.817 64.4537 214.503 64.852 213.006 64.852C211.899 64.852 210.971 64.6528 210.222 64.2546C209.482 63.8563 208.88 63.3665 208.419 62.7851C207.965 62.1956 207.614 61.622 207.367 61.0645L207.176 61.0645L207.176 71.3517L205.05 71.3517ZM207.152 55.3054C207.152 56.7871 207.371 58.1014 207.809 59.2483C208.255 60.3874 208.892 61.2834 209.721 61.9368C210.557 62.5819 211.568 62.9045 212.755 62.9045C213.973 62.9045 215.001 62.57 215.837 61.9008C216.681 61.2237 217.322 60.3117 217.76 59.1648C218.206 58.0177 218.429 56.7314 218.429 55.3054C218.429 53.8957 218.21 52.6251 217.772 51.494C217.342 50.3631 216.705 49.4669 215.861 48.8057C215.017 48.1368 213.981 47.8022 212.755 47.8022C211.56 47.8022 210.545 48.1248 209.709 48.77C208.872 49.4071 208.235 50.2914 207.798 51.4225C207.367 52.5454 207.152 53.8399 207.152 55.3054ZM232.638 64.852C230.926 64.852 229.445 64.4537 228.195 63.6571C226.944 62.8528 225.977 61.7416 225.292 60.3237C224.615 58.898 224.276 57.2571 224.276 55.4011C224.276 53.5531 224.615 51.9123 225.292 50.4785C225.977 49.0368 226.92 47.9097 228.123 47.0971C229.333 46.2768 230.731 45.8665 232.316 45.8665C233.311 45.8665 234.271 46.0497 235.195 46.4162C236.119 46.7746 236.947 47.3282 237.679 48.0769C238.42 48.8177 239.005 49.7537 239.436 50.8848C239.866 52.0079 240.081 53.338 240.081 54.8754L240.081 55.9268L225.746 55.9268L225.746 54.0511L237.907 54.0511C237.907 52.872 237.668 51.8128 237.19 50.8728C236.72 49.9248 236.063 49.1762 235.219 48.6265C234.383 48.0769 233.415 47.8022 232.316 47.8022C231.153 47.8022 230.13 48.1128 229.246 48.734C228.362 49.3554 227.669 50.1759 227.167 51.1954C226.674 52.2149 226.423 53.3302 226.415 54.5408L226.415 55.664C226.415 57.1217 226.666 58.396 227.167 59.4874C227.677 60.5706 228.398 61.4111 229.329 62.0083C230.261 62.6057 231.364 62.9045 232.638 62.9045C233.507 62.9045 234.267 62.7691 234.92 62.4983C235.581 62.2274 236.135 61.8651 236.581 61.4111C237.034 60.9491 237.377 60.4431 237.608 59.8937L239.627 60.5508C239.348 61.3234 238.89 62.0363 238.253 62.6894C237.624 63.3426 236.835 63.8683 235.888 64.2665C234.948 64.6568 233.865 64.852 232.638 64.852ZM244.766 64.4697L244.766 46.1174L246.833 46.1174L246.833 48.9371L246.988 48.9371C247.354 48.0131 247.992 47.2685 248.9 46.7029C249.815 46.1294 250.851 45.8426 252.005 45.8426C252.181 45.8426 252.376 45.8466 252.591 45.8546C252.806 45.8626 252.985 45.8705 253.128 45.8785L253.128 48.0411C253.033 48.0251 252.866 48.0014 252.627 47.9694C252.388 47.9377 252.129 47.9217 251.85 47.9217C250.895 47.9217 250.042 48.1248 249.294 48.5311C248.553 48.9292 247.968 49.4828 247.538 50.1917C247.108 50.9006 246.893 51.7091 246.893 52.6171L246.893 64.4697L244.766 64.4697Z" fill="white"/>
<path d="M140.543 376.566L135 358.214H137.246L141.594 373.352H141.749L146.086 358.214H148.343L152.644 373.317H152.811L157.159 358.214H159.405L153.862 376.566H151.664L147.316 361.524H147.089L142.741 376.566H140.543ZM170.332 376.948C168.62 376.948 167.139 376.549 165.888 375.754C164.638 374.948 163.671 373.838 162.986 372.419C162.309 370.993 161.97 369.353 161.97 367.498C161.97 365.65 162.309 364.007 162.986 362.575C163.671 361.133 164.614 360.006 165.817 359.194C167.027 358.372 168.425 357.962 170.01 357.962C171.005 357.962 171.965 358.147 172.889 358.513C173.812 358.87 174.641 359.423 175.373 360.174C176.114 360.914 176.699 361.85 177.129 362.981C177.559 364.104 177.774 365.433 177.774 366.972V368.024H163.44V366.146H175.6C175.6 364.968 175.361 363.908 174.883 362.969C174.414 362.02 173.757 361.272 172.912 360.723C172.076 360.174 171.109 359.898 170.01 359.898C168.847 359.898 167.824 360.21 166.94 360.83C166.056 361.452 165.363 362.272 164.861 363.292C164.367 364.31 164.116 365.427 164.108 366.636V367.761C164.108 369.218 164.36 370.493 164.861 371.584C165.371 372.667 166.091 373.506 167.023 374.105C167.955 374.702 169.058 375.001 170.332 375.001C171.2 375.001 171.961 374.864 172.614 374.595C173.275 374.324 173.828 373.96 174.274 373.506C174.728 373.045 175.071 372.539 175.302 371.99L177.32 372.646C177.042 373.42 176.584 374.133 175.947 374.784C175.318 375.438 174.529 375.964 173.581 376.362C172.642 376.753 171.559 376.948 170.332 376.948ZM182.902 376.566V352.097H185.04V361.715H185.231C185.47 361.164 185.813 360.599 186.259 360.018C186.713 359.436 187.306 358.95 188.039 358.561C188.779 358.161 189.711 357.962 190.834 357.962C192.339 357.962 193.661 358.361 194.8 359.158C195.939 359.947 196.827 361.053 197.464 362.479C198.101 363.896 198.419 365.549 198.419 367.437C198.419 369.334 198.101 370.993 197.464 372.419C196.835 373.844 195.951 374.957 194.812 375.754C193.681 376.549 192.367 376.948 190.87 376.948C189.755 376.948 188.823 376.749 188.075 376.351C187.334 375.952 186.737 375.462 186.283 374.881C185.829 374.292 185.478 373.718 185.231 373.161H184.969V376.566H182.902ZM185.005 367.401C185.005 368.884 185.223 370.198 185.662 371.344C186.108 372.484 186.745 373.38 187.573 374.032C188.409 374.677 189.42 375.001 190.607 375.001C191.826 375.001 192.857 374.667 193.701 373.996C194.545 373.319 195.186 372.408 195.624 371.26C196.062 370.114 196.281 368.827 196.281 367.401C196.281 365.992 196.062 364.72 195.624 363.591C195.194 362.46 194.557 361.564 193.713 360.901C192.869 360.233 191.834 359.898 190.607 359.898C189.412 359.898 188.397 360.22 187.561 360.866C186.733 361.503 186.1 362.388 185.662 363.517C185.223 364.642 185.005 365.936 185.005 367.401ZM219.157 376.948C217.652 376.948 216.334 376.549 215.203 375.754C214.072 374.957 213.188 373.844 212.551 372.419C211.922 370.993 211.608 369.334 211.608 367.437C211.608 365.549 211.922 363.896 212.551 362.479C213.188 361.053 214.076 359.947 215.215 359.158C216.354 358.361 217.68 357.962 219.193 357.962C220.308 357.962 221.236 358.161 221.976 358.561C222.717 358.95 223.31 359.436 223.756 360.018C224.202 360.599 224.549 361.164 224.796 361.715H224.987V352.097H227.125V376.566H225.046V373.161H224.796C224.549 373.718 224.198 374.292 223.744 374.881C223.29 375.462 222.689 375.952 221.94 376.351C221.2 376.749 220.272 376.948 219.157 376.948ZM219.408 375.001C220.595 375.001 221.606 374.677 222.442 374.032C223.278 373.38 223.916 372.484 224.354 371.344C224.8 370.198 225.022 368.884 225.022 367.401C225.022 365.936 224.804 364.642 224.365 363.517C223.927 362.388 223.29 361.503 222.454 360.866C221.618 360.22 220.603 359.898 219.408 359.898C218.182 359.898 217.146 360.233 216.302 360.901C215.466 361.564 214.829 362.46 214.391 363.591C213.961 364.72 213.746 365.992 213.746 367.401C213.746 368.827 213.965 370.114 214.403 371.26C214.841 372.408 215.478 373.319 216.314 373.996C217.158 374.667 218.19 375.001 219.408 375.001ZM240.6 376.948C238.887 376.948 237.406 376.549 236.156 375.754C234.906 374.948 233.938 373.838 233.253 372.419C232.576 370.993 232.238 369.353 232.238 367.498C232.238 365.65 232.576 364.007 233.253 362.575C233.938 361.133 234.882 360.006 236.084 359.194C237.295 358.372 238.692 357.962 240.277 357.962C241.273 357.962 242.232 358.147 243.156 358.513C244.08 358.87 244.908 359.423 245.641 360.174C246.381 360.914 246.967 361.85 247.397 362.981C247.827 364.104 248.042 365.433 248.042 366.972V368.024H233.707V366.146H245.868C245.868 364.968 245.629 363.908 245.151 362.969C244.681 362.02 244.024 361.272 243.18 360.723C242.344 360.174 241.376 359.898 240.277 359.898C239.114 359.898 238.091 360.21 237.207 360.83C236.323 361.452 235.63 362.272 235.129 363.292C234.635 364.31 234.384 365.427 234.376 366.636V367.761C234.376 369.218 234.627 370.493 235.129 371.584C235.638 372.667 236.359 373.506 237.291 374.105C238.223 374.702 239.326 375.001 240.6 375.001C241.468 375.001 242.228 374.864 242.881 374.595C243.542 374.324 244.096 373.96 244.542 373.506C244.996 373.045 245.338 372.539 245.569 371.99L247.588 372.646C247.309 373.42 246.851 374.133 246.214 374.784C245.585 375.438 244.797 375.964 243.849 376.362C242.909 376.753 241.826 376.948 240.6 376.948ZM265.055 362.241L263.108 362.79C262.917 362.241 262.646 361.743 262.296 361.297C261.946 360.851 261.488 360.496 260.922 360.233C260.365 359.97 259.672 359.837 258.844 359.837C257.601 359.837 256.582 360.134 255.786 360.723C254.989 361.311 254.591 362.073 254.591 363.004C254.591 363.793 254.862 364.434 255.403 364.928C255.953 365.414 256.797 365.801 257.936 366.087L260.707 366.768C262.244 367.143 263.395 367.736 264.16 368.55C264.932 369.361 265.318 370.381 265.318 371.607C265.318 372.642 265.032 373.563 264.458 374.368C263.885 375.171 263.084 375.804 262.057 376.267C261.038 376.721 259.855 376.948 258.509 376.948C256.717 376.948 255.24 376.547 254.077 375.741C252.915 374.93 252.17 373.758 251.843 372.23L253.886 371.727C254.149 372.818 254.663 373.643 255.427 374.2C256.2 374.757 257.215 375.037 258.474 375.037C259.883 375.037 261.01 374.721 261.854 374.093C262.698 373.455 263.12 372.658 263.12 371.704C263.12 370.961 262.873 370.341 262.38 369.839C261.886 369.33 261.137 368.955 260.134 368.716L257.136 367.999C255.543 367.616 254.364 367.01 253.6 366.184C252.835 365.355 252.453 364.327 252.453 363.101C252.453 362.09 252.728 361.2 253.277 360.437C253.826 359.663 254.583 359.057 255.547 358.62C256.51 358.182 257.609 357.962 258.844 357.962C260.524 357.962 261.866 358.344 262.87 359.11C263.881 359.867 264.609 360.91 265.055 362.241ZM269.998 376.566V358.214H272.136V376.566H269.998ZM271.085 355.06C270.647 355.06 270.273 354.912 269.962 354.618C269.652 354.315 269.496 353.951 269.496 353.529C269.496 353.108 269.652 352.749 269.962 352.454C270.273 352.151 270.647 352 271.085 352C271.523 352 271.897 352.151 272.208 352.454C272.519 352.749 272.674 353.108 272.674 353.529C272.674 353.951 272.519 354.315 272.208 354.618C271.897 354.912 271.523 355.06 271.085 355.06ZM284.76 383.831C283.509 383.831 282.414 383.667 281.474 383.341C280.535 383.021 279.743 382.584 279.098 382.027C278.453 381.467 277.951 380.843 277.592 380.151L279.337 379.003C279.599 379.465 279.95 379.92 280.388 380.365C280.833 380.811 281.411 381.181 282.119 381.476C282.836 381.77 283.717 381.917 284.76 381.917C286.385 381.917 287.695 381.512 288.69 380.7C289.692 379.888 290.195 378.624 290.195 376.913V372.778H290.004C289.758 373.336 289.402 373.893 288.942 374.45C288.479 375.001 287.874 375.457 287.125 375.825C286.385 376.191 285.464 376.374 284.365 376.374C282.899 376.374 281.598 376.013 280.459 375.287C279.329 374.562 278.437 373.527 277.784 372.181C277.139 370.827 276.816 369.214 276.816 367.342C276.816 365.486 277.131 363.854 277.76 362.443C278.397 361.034 279.285 359.934 280.424 359.146C281.562 358.357 282.889 357.962 284.401 357.962C285.525 357.962 286.457 358.161 287.197 358.561C287.937 358.95 288.53 359.436 288.978 360.018C289.43 360.599 289.785 361.164 290.039 361.715H290.256V358.214H292.333V377.043C292.333 378.597 292.003 379.875 291.343 380.879C290.681 381.882 289.781 382.624 288.641 383.101C287.504 383.587 286.209 383.831 284.76 383.831ZM284.617 374.427C285.794 374.427 286.802 374.143 287.638 373.58C288.475 373.005 289.116 372.185 289.562 371.117C290.008 370.051 290.231 368.779 290.231 367.307C290.231 365.873 290.012 364.602 289.575 363.494C289.135 362.38 288.498 361.503 287.664 360.866C286.835 360.22 285.82 359.898 284.617 359.898C283.389 359.898 282.355 360.228 281.51 360.889C280.666 361.551 280.029 362.443 279.599 363.566C279.169 364.68 278.954 365.927 278.954 367.307C278.954 368.707 279.173 369.946 279.611 371.022C280.049 372.089 280.69 372.926 281.535 373.531C282.378 374.128 283.406 374.427 284.617 374.427ZM300.089 365.094V376.566H297.963V358.214H300.03V361.093H300.221C300.65 360.153 301.319 359.4 302.227 358.834C303.144 358.26 304.275 357.974 305.62 357.974C306.855 357.974 307.937 358.233 308.869 358.75C309.809 359.261 310.538 360.014 311.055 361.009C311.581 362.005 311.844 363.227 311.844 364.678V376.566H309.718V364.809C309.718 363.303 309.296 362.113 308.45 361.236C307.616 360.361 306.493 359.921 305.082 359.921C304.119 359.921 303.264 360.13 302.513 360.544C301.765 360.958 301.172 361.555 300.734 362.336C300.303 363.107 300.089 364.028 300.089 365.094ZM324.862 376.948C323.149 376.948 321.668 376.549 320.417 375.754C319.167 374.948 318.199 373.838 317.514 372.419C316.837 370.993 316.499 369.353 316.499 367.498C316.499 365.65 316.837 364.007 317.514 362.575C318.199 361.133 319.143 360.006 320.346 359.194C321.557 358.372 322.955 357.962 324.538 357.962C325.535 357.962 326.493 358.147 327.419 358.513C328.342 358.87 329.17 359.423 329.902 360.174C330.644 360.914 331.228 361.85 331.659 362.981C332.088 364.104 332.305 365.433 332.305 366.972V368.024H317.968V366.146H330.129C330.129 364.968 329.891 363.908 329.414 362.969C328.943 362.02 328.287 361.272 327.442 360.723C326.605 360.174 325.638 359.898 324.538 359.898C323.376 359.898 322.354 360.21 321.469 360.83C320.586 361.452 319.892 362.272 319.389 363.292C318.897 364.31 318.645 365.427 318.639 366.636V367.761C318.639 369.218 318.889 370.493 319.389 371.584C319.9 372.667 320.621 373.506 321.553 374.105C322.484 374.702 323.588 375.001 324.862 375.001C325.73 375.001 326.489 374.864 327.143 374.595C327.803 374.324 328.358 373.96 328.804 373.506C329.258 373.045 329.601 372.539 329.83 371.99L331.851 372.646C331.571 373.42 331.113 374.133 330.476 374.784C329.847 375.438 329.058 375.964 328.11 376.362C327.17 376.753 326.088 376.948 324.862 376.948ZM336.989 376.566V358.214H339.056V361.034H339.211C339.577 360.109 340.214 359.364 341.122 358.799C342.039 358.224 343.073 357.938 344.228 357.938C344.404 357.938 344.6 357.943 344.814 357.951C345.029 357.96 345.207 357.966 345.35 357.974V360.138C345.256 360.121 345.09 360.098 344.85 360.064C344.61 360.033 344.352 360.018 344.074 360.018C343.117 360.018 342.266 360.22 341.518 360.626C340.775 361.025 340.191 361.579 339.76 362.287C339.331 362.996 339.117 363.805 339.117 364.714V376.566H336.989Z" fill="white"/>
</svg>
