<svg width="96" height="138" viewBox="0 0 96 138" fill="none" xmlns="http://www.w3.org/2000/svg">
<rect x="0.5" y="0.5" width="95" height="137" stroke="white"/>
<path d="M8.98864 100V76.7273H10.4091V98.6818H21.7727V100H8.98864ZM26.9886 100V76.7273H39.9432V78.0455H28.4091V87.6932H39.25V89.0114H28.4091V98.6818H40.2159V100H26.9886ZM47.2528 76.7273V100H45.8324V76.7273H47.2528ZM66.5341 82.5455C66.4129 81.0985 65.822 79.928 64.7614 79.0341C63.7083 78.1402 62.3447 77.6932 60.6705 77.6932C59.5417 77.6932 58.5379 77.9015 57.6591 78.3182C56.7803 78.7348 56.0909 79.303 55.5909 80.0227C55.0909 80.7424 54.8409 81.5682 54.8409 82.5C54.8409 83.0985 54.9545 83.6402 55.1818 84.125C55.4167 84.6023 55.7462 85.0303 56.1705 85.4091C56.5947 85.7803 57.0985 86.1061 57.6818 86.3864C58.2652 86.6667 58.9091 86.9129 59.6136 87.125L62.1591 87.875C63.0303 88.1402 63.8333 88.447 64.5682 88.7955C65.3106 89.1439 65.9545 89.5606 66.5 90.0455C67.053 90.5227 67.4811 91.0833 67.7841 91.7273C68.0947 92.3712 68.25 93.1136 68.25 93.9545C68.25 95.1818 67.9318 96.2803 67.2955 97.25C66.6667 98.2197 65.7689 98.9848 64.6023 99.5455C63.4432 100.098 62.0758 100.375 60.5 100.375C59 100.375 57.6932 100.121 56.5795 99.6136C55.4735 99.1061 54.5985 98.4015 53.9545 97.5C53.3106 96.5909 52.947 95.5455 52.8636 94.3636H54.3182C54.3939 95.3258 54.7008 96.1591 55.2386 96.8636C55.7841 97.5606 56.5076 98.0985 57.4091 98.4773C58.3106 98.8561 59.3409 99.0455 60.5 99.0455C61.75 99.0455 62.8523 98.8333 63.8068 98.4091C64.7614 97.9773 65.5076 97.3788 66.0455 96.6136C66.5833 95.8485 66.8523 94.9583 66.8523 93.9432C66.8523 93.125 66.6591 92.4242 66.2727 91.8409C65.8864 91.2576 65.3144 90.7538 64.5568 90.3295C63.8068 89.9053 62.875 89.5265 61.7614 89.1932L59.0455 88.375C57.2273 87.822 55.8371 87.0682 54.875 86.1136C53.9205 85.1591 53.4432 83.9697 53.4432 82.5455C53.4432 81.3485 53.7614 80.2879 54.3977 79.3636C55.0341 78.4318 55.8977 77.7008 56.9886 77.1705C58.0871 76.6402 59.3258 76.375 60.7045 76.375C62.0909 76.375 63.3144 76.6439 64.375 77.1818C65.4356 77.7121 66.2765 78.4432 66.8977 79.375C67.5189 80.2992 67.8636 81.3561 67.9318 82.5455H66.5341ZM86.4091 82.5455C86.2879 81.0985 85.697 79.928 84.6364 79.0341C83.5833 78.1402 82.2197 77.6932 80.5455 77.6932C79.4167 77.6932 78.4129 77.9015 77.5341 78.3182C76.6553 78.7348 75.9659 79.303 75.4659 80.0227C74.9659 80.7424 74.7159 81.5682 74.7159 82.5C74.7159 83.0985 74.8295 83.6402 75.0568 84.125C75.2917 84.6023 75.6212 85.0303 76.0455 85.4091C76.4697 85.7803 76.9735 86.1061 77.5568 86.3864C78.1402 86.6667 78.7841 86.9129 79.4886 87.125L82.0341 87.875C82.9053 88.1402 83.7083 88.447 84.4432 88.7955C85.1856 89.1439 85.8295 89.5606 86.375 90.0455C86.928 90.5227 87.3561 91.0833 87.6591 91.7273C87.9697 92.3712 88.125 93.1136 88.125 93.9545C88.125 95.1818 87.8068 96.2803 87.1705 97.25C86.5417 98.2197 85.6439 98.9848 84.4773 99.5455C83.3182 100.098 81.9508 100.375 80.375 100.375C78.875 100.375 77.5682 100.121 76.4545 99.6136C75.3485 99.1061 74.4735 98.4015 73.8295 97.5C73.1856 96.5909 72.822 95.5455 72.7386 94.3636H74.1932C74.2689 95.3258 74.5758 96.1591 75.1136 96.8636C75.6591 97.5606 76.3826 98.0985 77.2841 98.4773C78.1856 98.8561 79.2159 99.0455 80.375 99.0455C81.625 99.0455 82.7273 98.8333 83.6818 98.4091C84.6364 97.9773 85.3826 97.3788 85.9205 96.6136C86.4583 95.8485 86.7273 94.9583 86.7273 93.9432C86.7273 93.125 86.5341 92.4242 86.1477 91.8409C85.7614 91.2576 85.1894 90.7538 84.4318 90.3295C83.6818 89.9053 82.75 89.5265 81.6364 89.1932L78.9205 88.375C77.1023 87.822 75.7121 87.0682 74.75 86.1136C73.7955 85.1591 73.3182 83.9697 73.3182 82.5455C73.3182 81.3485 73.6364 80.2879 74.2727 79.3636C74.9091 78.4318 75.7727 77.7008 76.8636 77.1705C77.9621 76.6402 79.2008 76.375 80.5795 76.375C81.9659 76.375 83.1894 76.6439 84.25 77.1818C85.3106 77.7121 86.1515 78.4432 86.7727 79.375C87.3939 80.2992 87.7386 81.3561 87.8068 82.5455H86.4091Z" fill="white"/>
<path d="M51.4773 61.6949V35.5131H53.8679V59.5472H66.3452V61.6949H51.4773Z" fill="white"/>
<path d="M44.5227 34L44.5227 60.1818L42.1321 60.1818L42.1321 36.1477L29.6548 36.1477L29.6548 34L44.5227 34Z" fill="white"/>
</svg>
